<svg xmlns="http://www.w3.org/2000/svg" width="19.2" height="19.2" viewBox="0 0 19.2 19.2"><path d="M12.478,2.4h.555A9.07,9.07,0,0,1,21.6,10.967q0,.017,0,.033v.5a9.1,9.1,0,0,1-9.1,9.1h-.022a9.028,9.028,0,0,1-3.821-.853L3.19,21.569a.6.6,0,0,1-.759-.759l1.823-5.468A9.1,9.1,0,0,1,12.478,2.4Zm.5,1.2h-.5a7.895,7.895,0,0,0-7.043,11.43.6.6,0,0,1,.034.46L3.949,20.051,8.51,18.531a.6.6,0,0,1,.46.034,7.818,7.818,0,0,0,3.508.836h.02a7.909,7.909,0,0,0,7.9-7.9v-.485A7.871,7.871,0,0,0,12.983,3.6Z" transform="translate(-2.4 -2.4)"/></svg>