<svg xmlns="http://www.w3.org/2000/svg" width="10.706" height="14.086" viewBox="0 0 10.706 14.086"><path d="M212.852,143.435l-.348,9.579a.128.128,0,0,1-.123.118h-6.2a.13.13,0,0,1-.123-.118l-.348-9.579a.657.657,0,1,0-1.314.048l.348,9.579a1.444,1.444,0,0,0,1.437,1.385h6.2a1.442,1.442,0,0,0,1.437-1.385l.348-9.579a.657.657,0,1,0-1.314-.048Z" transform="translate(-203.931 -140.36)"/><path d="M336,204.87v6.386a.47.47,0,0,0,.939,0V204.87a.47.47,0,1,0-.939,0Z" transform="translate(-331.117 -199.892)"/><path d="M271.6,204.881l.188,6.386a.47.47,0,0,0,.939-.028l-.188-6.386a.47.47,0,1,0-.939.028Z" transform="translate(-268.88 -199.89)"/><path d="M394.99,204.858l-.188,6.386a.47.47,0,1,0,.939.028l.188-6.386a.47.47,0,1,0-.939-.028Z" transform="translate(-387.947 -199.894)"/><path d="M191.055,130.115h9.391a.657.657,0,1,0,0-1.315h-9.391a.657.657,0,1,0,0,1.315Z" transform="translate(-190.398 -126.828)"/><path d="M276.264,72.316l.193-.773a.363.363,0,0,1,.3-.231h1.5a.362.362,0,0,1,.3.231l.193.773L280.021,72l-.193-.773A1.667,1.667,0,0,0,278.257,70h-1.5a1.667,1.667,0,0,0-1.571,1.227l-.193.773Z" transform="translate(-272.152 -69.997)"/></svg>