<svg xmlns="http://www.w3.org/2000/svg" width="27.2" height="23.2" viewBox="0 0 27.2 23.2"><g transform="translate(-764.57 -528.4)"><path d="M21,11.5a8.38,8.38,0,0,1-.9,3.8A8.5,8.5,0,0,1,12.5,20a8.38,8.38,0,0,1-3.8-.9L3,21l1.9-5.7A8.38,8.38,0,0,1,4,11.5,8.5,8.5,0,0,1,8.7,3.9,8.38,8.38,0,0,1,12.5,3H13a8.48,8.48,0,0,1,8,8Z" transform="translate(762.17 526)" fill="#cddfff"/><path d="M12.478,2.4h.555A9.07,9.07,0,0,1,21.6,10.967q0,.017,0,.033v.5a9.1,9.1,0,0,1-9.1,9.1h-.022a9.028,9.028,0,0,1-3.821-.853L3.19,21.569a.6.6,0,0,1-.759-.759l1.823-5.468A9.1,9.1,0,0,1,12.478,2.4Zm.5,1.2h-.5a7.895,7.895,0,0,0-7.043,11.43.6.6,0,0,1,.034.46L3.949,20.051,8.51,18.531a.6.6,0,0,1,.46.034,7.818,7.818,0,0,0,3.508.836h.02a7.909,7.909,0,0,0,7.9-7.9v-.485A7.871,7.871,0,0,0,12.983,3.6Z" transform="translate(762.17 526)"/><path d="M3,11.5a8.38,8.38,0,0,0,.9,3.8A8.5,8.5,0,0,0,11.5,20a8.38,8.38,0,0,0,3.8-.9L21,21l-1.9-5.7a8.38,8.38,0,0,0,.9-3.8,8.5,8.5,0,0,0-4.7-7.6A8.38,8.38,0,0,0,11.5,3H11a8.48,8.48,0,0,0-8,8Z" transform="translate(770.17 530)" fill="#cddfff"/><path d="M11.522,2.4a9.1,9.1,0,0,1,8.225,12.943l1.823,5.468a.6.6,0,0,1-.759.759l-5.468-1.823a9.028,9.028,0,0,1-3.821.853H11.5a9.109,9.109,0,0,1-9.1-9.1V11q0-.017,0-.033A9.07,9.07,0,0,1,10.967,2.4h.555Zm8.529,17.651L18.531,15.49a.6.6,0,0,1,.034-.46A7.9,7.9,0,0,0,11.522,3.6h-.5A7.871,7.871,0,0,0,3.6,11.017V11.5a7.909,7.909,0,0,0,7.9,7.9h.022a7.818,7.818,0,0,0,3.508-.836.6.6,0,0,1,.46-.034Z" transform="translate(770.17 530)"/></g></svg>