<svg xmlns="http://www.w3.org/2000/svg" width="28.865" height="27.22" viewBox="0 0 28.865 27.22"><path d="M19628.219,18588.443h18.338s.324,11.428,0,11.428h-10.787l-5.705,3.375,1.533-3.859h-3.379Z" transform="translate(-19627.578 -18587.4)" fill="#cddfff"/><path d="M19646.33,18588.443h-17.963s-.318,12.055,0,12.055h10.563l5.59,3.564-1.5-4.072h3.311Z" transform="translate(-19618.344 -18577.436)" fill="#cddfff"/><g transform="translate(-1490 1733)"><g transform="translate(1490 -1731)"><path d="M72.514,12.466a.588.588,0,0,1-.555-.789l1.157-3.205H70.583a.591.591,0,0,1-.59-.59v-11.8a.591.591,0,0,1,.59-.59H89.457a.592.592,0,0,1,.59.59v11.8a.592.592,0,0,1-.59.59H78.742l-5.9,3.9a.6.6,0,0,1-.326.094ZM71.173,7.293h2.784a.59.59,0,0,1,.554.79l-.839,2.326,4.566-3.018a.571.571,0,0,1,.324-.1h10.3V-3.324H71.173Z" transform="translate(-69.993 2.504)"/><path d="M273.556,222.136a.648.648,0,0,1-.335-.089l-6.094-3.592h-9.844a.58.58,0,0,1-.609-.543V207.594a.613.613,0,0,1,1.218,0v9.775h9.418a.633.633,0,0,1,.334.09l4.715,2.778-.866-2.141a.494.494,0,0,1,.074-.5.634.634,0,0,1,.5-.231h2.874V206.509h-7.307a.547.547,0,1,1,0-1.086h7.916a.581.581,0,0,1,.609.543v11.947a.581.581,0,0,1-.609.543h-2.616l1.195,2.952a.509.509,0,0,1-.2.611.64.64,0,0,1-.376.117Z" transform="translate(-247.294 -196.916)"/><path d="M140.7,66.993H128.87c-.3,0-.538-.336-.538-.751s.241-.751.538-.751H140.7c.3,0,.538.339.538.751S140.992,66.993,140.7,66.993Z" transform="translate(-124.58 -64.99)"/><path d="M140.7,113.665H128.87c-.3,0-.538-.336-.538-.751s.241-.751.538-.751H140.7c.3,0,.538.339.538.751S140.992,113.665,140.7,113.665Z" transform="translate(-124.58 -108.66)"/><path d="M136.176,160.325h-7.24a.768.768,0,0,1,0-1.5h7.24a.768.768,0,0,1,0,1.5Z" transform="translate(-124.58 -152.318)"/><path d="M140.7,113.665H128.87c-.3,0-.538-.336-.538-.751s.241-.751.538-.751H140.7c.3,0,.538.339.538.751S140.992,113.665,140.7,113.665Z" transform="translate(-114.87 -97.66)"/><path d="M136.176,160.325h-7.24a.768.768,0,0,1,0-1.5h7.24a.768.768,0,0,1,0,1.5Z" transform="translate(-114.87 -141.318)"/><path d="M140.7,113.665H128.87c-.3,0-.538-.336-.538-.751s.241-.751.538-.751H140.7c.3,0,.538.339.538.751S140.992,113.665,140.7,113.665Z" transform="translate(-114.87 -100.66)"/></g></g></svg>