<svg xmlns="http://www.w3.org/2000/svg" width="19.2" height="19.2" viewBox="0 0 19.2 19.2"><g transform="translate(0.6 0.6)"><path d="M2-.6H16A2.6,2.6,0,0,1,18.6,2V16A2.6,2.6,0,0,1,16,18.6H2A2.6,2.6,0,0,1-.6,16V2A2.6,2.6,0,0,1,2-.6Zm14,18A1.4,1.4,0,0,0,17.4,16V2A1.4,1.4,0,0,0,16,.6H2A1.4,1.4,0,0,0,.6,2V16A1.4,1.4,0,0,0,2,17.4Z"/><path d="M1.5-.6A2.1,2.1,0,1,1-.6,1.5,2.1,2.1,0,0,1,1.5-.6Zm0,3a.9.9,0,1,0-.9-.9A.9.9,0,0,0,1.5,2.4Z" transform="translate(4 4)"/><path d="M5,21.6a.6.6,0,0,1-.424-1.024l11-11a.6.6,0,0,1,.849,0l5,5a.6.6,0,1,1-.849.849L16,10.849,5.424,21.424A.6.6,0,0,1,5,21.6Z" transform="translate(-3 -3)"/></g></svg>