<svg xmlns="http://www.w3.org/2000/svg" width="15.064" height="15.064" viewBox="0 0 15.064 15.064"><path d="M170.426,39.545l-3.4-3.4a.481.481,0,0,0-.68,0L164.294,38.2h0l-7.787,7.787a.48.48,0,0,0-.131.245l-.862,4.263a.481.481,0,0,0,.472.576.467.467,0,0,0,.1-.01l4.262-.862a.479.479,0,0,0,.245-.131l9.839-9.839a.481.481,0,0,0,0-.68Zm-8.82,8.139-2.721-2.721,5.747-5.747,2.72,2.721Zm-1.6,1.6-3.41.689.689-3.41.918-.918,2.721,2.721Zm8.025-8.025-2.72-2.721,1.372-1.372,2.721,2.721Z" transform="translate(-155.503 -36.003)"/></svg>