<svg xmlns="http://www.w3.org/2000/svg" width="17.025" height="11.149" viewBox="0 0 17.025 11.149"><path d="M130.952,133.636a9.369,9.369,0,0,1-5.115-1.434,8.621,8.621,0,0,1-3.356-3.923.588.588,0,0,1,0-.434,8.619,8.619,0,0,1,3.356-3.923,9.837,9.837,0,0,1,10.23,0,8.621,8.621,0,0,1,3.356,3.923.588.588,0,0,1,0,.434,8.62,8.62,0,0,1-3.356,3.923A9.368,9.368,0,0,1,130.952,133.636Zm-7.149-5.574a7.419,7.419,0,0,0,2.886,3.183,8.463,8.463,0,0,0,8.525,0,7.419,7.419,0,0,0,2.886-3.183,7.419,7.419,0,0,0-2.886-3.183,8.463,8.463,0,0,0-8.525,0A7.419,7.419,0,0,0,123.8,128.062Z" transform="translate(-122.44 -122.488)"/><path d="M232.083,131.171a4.719,4.719,0,0,1-3.24-1.27,4.172,4.172,0,0,1,0-6.131,4.769,4.769,0,0,1,6.481,0,4.172,4.172,0,0,1,0,6.131A4.719,4.719,0,0,1,232.083,131.171Zm0-7.432a3.37,3.37,0,0,0-2.314.907,2.98,2.98,0,0,0,0,4.379,3.407,3.407,0,0,0,4.629,0,2.98,2.98,0,0,0,0-4.379A3.37,3.37,0,0,0,232.083,123.739Z" transform="translate(-223.57 -122.5)"/><path d="M299.464,196.216a2.023,2.023,0,0,1-1.389-.544,1.788,1.788,0,0,1,0-2.628,2.044,2.044,0,0,1,2.778,0,1.788,1.788,0,0,1,0,2.628A2.023,2.023,0,0,1,299.464,196.216Zm0-2.477a.674.674,0,0,0-.463.181.6.6,0,0,0,0,.876.681.681,0,0,0,.926,0,.6.6,0,0,0,0-.876A.674.674,0,0,0,299.464,193.739Z" transform="translate(-290.951 -190.022)"/></svg>