<svg xmlns="http://www.w3.org/2000/svg" width="22" height="35" viewBox="0 0 22 35"><g fill="#ffd500"><path d="M 19 34.25 L 3 34.25 C 1.759349942207336 34.25 0.75 33.24065017700195 0.75 32 L 0.75 3 C 0.75 1.759349942207336 1.759349942207336 0.75 3 0.75 L 19 0.75 C 20.24065017700195 0.75 21.25 1.759349942207336 21.25 3 L 21.25 32 C 21.25 33.24065017700195 20.24065017700195 34.25 19 34.25 Z" stroke="none"/><path d="M 3 1.5 C 2.17289924621582 1.5 1.5 2.172901153564453 1.5 3 L 1.5 32 C 1.5 32.82709884643555 2.17289924621582 33.5 3 33.5 L 19 33.5 C 19.82710075378418 33.5 20.5 32.82709884643555 20.5 32 L 20.5 3 C 20.5 2.172901153564453 19.82710075378418 1.5 19 1.5 L 3 1.5 M 3 0 L 19 0 C 20.65685081481934 0 22 1.343151092529297 22 3 L 22 32 C 22 33.6568489074707 20.65685081481934 35 19 35 L 3 35 C 1.343149185180664 35 0 33.6568489074707 0 32 L 0 3 C 0 1.343151092529297 1.343149185180664 0 3 0 Z" stroke="none" fill="#000"/></g></svg>